<svg width="223" height="391" viewBox="0 0 223 391" fill="none" xmlns="http://www.w3.org/2000/svg">
<rect x="51" y="279" width="120" height="112" fill="black"/>
<path d="M8.5 313.01L24.5 254.01L191 246.01L212 310.01L109.265 326.01L8.5 313.01Z" fill="#FCBBB9"/>
<path d="M92.2793 189.01C92.6793 195.01 91.446 199.843 90.7793 201.51L91.2793 216.01L118.779 218.51C122.613 214.843 129.679 206.31 127.279 201.51C124.879 196.71 124.279 191.177 124.279 189.01H92.2793Z" fill="#FC9895"/>
<path d="M124.279 189.01H92.2791C92.4488 191.556 92.3245 193.891 92.0742 195.864C93.8092 198.079 100.179 202.31 109.779 201.51C119.379 200.71 123.645 196.177 124.828 194.01C124.418 191.869 124.279 190.051 124.279 189.01Z" fill="#DC657C"/>
<path d="M17.2793 254.51L33.2793 267.01L111.279 302.51L181.279 267.01L200.279 253.01C173.079 213.41 139.946 201.177 126.779 200.01C126.946 202.843 124.079 209.01 111.279 211.01C98.4793 213.01 92.6126 204.51 91.2793 200.01C56.8793 203.21 27.6126 237.677 17.2793 254.51Z" fill="#31AB45"/>
<path d="M17.2793 254.51L33.2793 275.01H49.2793L23.4604 245.51C20.9726 248.816 18.8946 251.879 17.2793 254.51Z" fill="#248C32"/>
<path d="M181.279 275.01L200.279 253.01C198.481 250.392 196.657 247.893 194.814 245.51L165.279 275.01H181.279Z" fill="#248C32"/>
<path d="M111.279 211.01C98.4793 213.01 92.6126 204.51 91.2793 200.01C88.5788 200.261 85.9099 200.705 83.2793 201.318C84.2793 207.049 92.4793 218.91 109.279 218.51C126.079 218.11 133.613 207.162 136.279 201.988C132.509 200.854 129.283 200.232 126.779 200.01C126.946 202.843 124.079 209.01 111.279 211.01Z" fill="#248C32"/>
<path d="M14.7792 135.01C18.7792 116.61 36.7792 119.01 45.2792 122.51C53.1125 134.343 65.6792 158.81 53.2792 162.01C37.7792 166.01 9.77915 158.01 14.7792 135.01Z" fill="#FC9895"/>
<path d="M27.2793 134.01C34.0793 129.61 43.1126 137.843 46.7793 142.51C53.2793 144.843 62.3793 150.31 46.7793 153.51C27.2793 157.51 18.7793 139.51 27.2793 134.01Z" fill="#DC657C"/>
<path d="M204 135.01C200 116.61 182 119.01 173.5 122.51C165.667 134.343 153.1 158.81 165.5 162.01C181 166.01 209 158.01 204 135.01Z" fill="#FC9895"/>
<path d="M191.5 134.01C184.7 129.61 175.667 137.843 172 142.51C165.5 144.843 156.4 150.31 172 153.51C191.5 157.51 200 139.51 191.5 134.01Z" fill="#DC657C"/>
<path d="M68.7793 185.01C48.7793 176.61 42.7793 146.843 40.2793 132.01L33.2793 102.01L48.2793 67.0099L111.779 36.5099L182.279 65.5099C181.946 82.8432 181.079 119.01 180.279 125.01C179.279 132.51 174.279 170.01 154.779 182.01C135.279 194.01 93.7793 195.51 68.7793 185.01Z" fill="#FC9895"/>
<path d="M130.279 136.01C133.479 141.21 139.946 142.177 142.779 142.01C152.279 140.51 159.779 137.51 158.279 122.51C156.779 107.51 137.779 109.01 131.779 113.01C125.779 117.01 126.279 129.51 130.279 136.01Z" fill="white"/>
<path d="M88.471 136.219C85.271 141.419 78.8044 142.386 75.971 142.219C66.471 140.719 58.9711 137.719 60.4711 122.719C61.9711 107.719 80.971 109.219 86.971 113.219C92.971 117.219 92.471 129.719 88.471 136.219Z" fill="white"/>
<path d="M133.779 118.51C135.779 116.91 138.612 116.51 139.779 116.51C149.779 117.51 149.779 127.01 147.779 132.51C145.779 138.01 136.779 139.01 133.279 134.01C129.779 129.01 131.279 120.51 133.779 118.51Z" fill="black"/>
<path d="M84.9709 118.719C82.9709 117.119 80.1376 116.719 78.9709 116.719C68.9709 117.719 68.9709 127.219 70.9709 132.719C72.9709 138.219 81.9709 139.219 85.4709 134.219C88.9709 129.219 87.4709 120.719 84.9709 118.719Z" fill="black"/>
<path d="M73.7793 74.0099C56.1793 78.4099 43.7793 95.1766 39.7793 103.01L32.2793 95.0099L60.2793 55.0099L119.779 53.5099L184.779 72.0099C185.279 92.0099 186.99 125.079 178.279 101.51C169.779 78.5099 147.946 69.8432 136.779 68.0099C136.279 74.8432 142.279 89.5099 123.279 95.0099C111.251 98.4917 103.279 88.0099 100.779 82.0099L103.779 96.5099C81.3793 98.1099 74.446 82.1766 73.7793 74.0099Z" fill="#DC657C"/>
<path d="M43.7787 89.5098C36.9787 101.11 39.9453 128.01 42.2787 140.01C26.6787 121.21 23.4454 96.8432 23.7787 87.0099C12.7788 80.5099 15.2787 64.0098 20.7787 58.0099C25.1787 53.2099 31.9453 55.0099 34.7786 56.5098C31.7786 53.6765 28.6786 45.0099 40.2786 33.0099C51.8786 21.0099 62.7786 25.0099 66.7786 28.5098C57.2786 16.0098 72.7786 0.509836 98.2786 0.00983578C118.679 -0.390164 119.779 11.5098 117.779 17.5098C119.112 14.5098 123.879 9.20985 132.279 12.0098C140.679 14.8098 140.779 22.5098 139.779 26.0098C144.779 18.5098 161.779 16.0098 176.279 28.5098C187.879 38.5098 184.112 51.3432 180.779 56.5098C184.445 54.6765 192.979 53.2098 197.779 62.0098C202.579 70.8098 197.112 79.0098 193.779 82.0098C198.579 100.41 185.112 125.677 177.779 136.01C178.945 124.677 179.579 98.4098 172.779 84.0098C165.979 69.6098 149.945 63.8432 141.779 62.0098C135.779 70.0098 142.279 73.1765 147.279 74.5098C142.945 80.1765 131.779 91.9098 121.779 93.5098C111.779 95.1098 104.945 87.1765 102.779 83.0098L105.779 93.5098C81.7786 93.5098 75.612 75.8432 76.2787 66.0099C67.7787 69.6766 50.5787 77.9098 43.7787 89.5098Z" fill="black"/>
<path d="M43.7783 89.5099C36.9783 101.11 39.945 128.01 42.2783 140.01C26.6783 121.21 23.445 96.8432 23.7784 87.0099C27.6117 88.8432 36.9783 91.9098 43.7783 89.5099Z" fill="#2F3051"/>
<path d="M177.778 136.01C178.945 124.677 179.578 98.4099 172.778 84.0099C183.578 86.4099 191.278 83.6765 193.778 82.0099C198.578 100.41 185.112 125.677 177.778 136.01Z" fill="#2F3051"/>
<path d="M89.2785 149.51C93.6785 150.31 103.778 150.843 108.278 151.01C114.278 151.298 128.778 150.51 134.778 150.51C140.778 150.51 141.778 153.51 139.278 161.51C136.778 169.51 124.778 180.51 105.278 180.01C85.7784 179.51 79.2785 162.01 78.2785 155.51C77.2785 149.01 83.7785 148.51 89.2785 149.51Z" fill="black"/>
<path d="M85.8281 149.123C86.9714 149.163 88.1466 149.304 89.2793 149.51C93.6793 150.31 103.779 150.843 108.279 151.01C114.279 151.298 128.779 150.51 134.779 150.51C135.13 150.51 135.463 150.521 135.78 150.542C131.127 162.429 111.246 161.451 98.2793 160.01C89.2078 159.002 86.3221 153.22 85.8281 149.123Z" fill="white"/>
<path d="M105.779 166.011C115.162 165.131 124.58 168.856 130.844 172.417C124.974 176.882 116.332 180.294 105.279 180.011C97.922 179.822 92.4163 177.212 88.3574 173.687C91.3667 170.445 96.9073 166.842 105.779 166.011Z" fill="#C54C67"/>
<path d="M136.779 99.0098C141.579 97.8098 147.113 99.5098 149.279 100.51L149.279 100.51C152.279 102.01 154.279 103.01 155.279 101.51C156.279 100.01 155.779 98.0098 152.279 95.0098C148.779 92.0098 142.279 92.0098 136.779 93.0098C131.279 94.0098 130.779 100.51 136.779 99.0098Z" fill="black"/>
<path d="M82.2343 99.108C77.4343 97.908 71.901 99.608 69.7343 100.608L69.7343 100.608C66.7343 102.108 64.7343 103.108 63.7343 101.608C62.7343 100.108 63.2343 98.108 66.7343 95.108C70.2343 92.108 76.7343 92.108 82.2343 93.108C87.7343 94.108 88.2343 100.608 82.2343 99.108Z" fill="black"/>
<path d="M102.279 135.129C102.446 132.589 104.207 126.953 109.779 127.51C114.779 128.01 116.279 130.343 117.279 137.01" stroke="black" stroke-width="2" stroke-linecap="round"/>
<path d="M110.018 297.035V300.741L39.2845 305.066C32.0773 294.564 19.825 273.251 28.4737 272.015C37.1224 270.78 86.4403 288.18 110.018 297.035Z" fill="#D9D9D9"/>
<path d="M109.904 293.268V297.003L42.1771 301.359C35.2762 290.779 23.5447 269.308 31.8258 268.063C40.1068 266.818 87.3286 284.348 109.904 293.268Z" fill="#FDD26F"/>
<path d="M109.904 296.788V300.495L39.1703 304.819C31.963 294.317 19.7108 273.005 28.3594 271.769C37.0081 270.533 86.3261 287.934 109.904 296.788Z" fill="#FFEAB9"/>
<path d="M110.018 293.268V297.003L177.745 301.359C184.646 290.779 196.377 269.308 188.096 268.063C179.815 266.818 132.593 284.348 110.018 293.268Z" fill="#FDD26F"/>
<path d="M110.018 296.788V300.495L180.752 304.819C187.959 294.317 200.211 273.005 191.562 271.769C182.914 270.533 133.596 287.934 110.018 296.788Z" fill="#FFEAB9"/>
<path d="M104.149 379.197C105.632 380.433 108.268 380.742 109.4 380.742H110.018H110.327C111.459 380.742 114.095 380.433 115.578 379.197C117.431 377.653 136.582 371.784 150.79 367.769C162.157 364.556 177.972 359.841 184.458 357.884C185.591 357.37 187.979 355.475 188.474 352.016C188.968 348.556 195.269 303.006 198.358 280.664C198.667 278.811 198.42 275.104 194.96 275.104C190.636 275.104 190.018 275.722 186.003 276.649C181.987 277.575 115.887 297.035 110.018 299.197H109.709C103.84 297.035 37.7398 277.575 33.7243 276.649C29.7089 275.722 29.0911 275.104 24.7668 275.104C21.3073 275.104 21.0602 278.811 21.3691 280.664C24.4579 303.006 30.7591 348.556 31.2533 352.016C31.7475 355.475 34.1362 357.37 35.2688 357.884C41.7553 359.841 57.57 364.556 68.9368 367.769C83.1453 371.784 102.296 377.653 104.149 379.197Z" fill="#D9D9D9"/>
<path fill-rule="evenodd" clip-rule="evenodd" d="M110.018 299.197L110.018 380.742H110.327C111.459 380.742 114.095 380.433 115.578 379.197C117.431 377.653 136.582 371.784 150.79 367.769C162.157 364.556 177.972 359.841 184.458 357.884C185.591 357.37 187.979 355.475 188.474 352.016C188.968 348.556 195.269 303.006 198.358 280.664C198.667 278.811 198.42 275.104 194.96 275.104C191.826 275.104 190.639 275.429 188.695 275.96C187.956 276.162 187.108 276.394 186.003 276.649C181.987 277.575 115.887 297.035 110.018 299.197Z" fill="#30AC44"/>
<path fill-rule="evenodd" clip-rule="evenodd" d="M110.018 380.742L110.018 299.197H109.709C103.84 297.035 37.7398 277.575 33.7243 276.649C32.6187 276.394 31.7707 276.162 31.032 275.96C29.0877 275.429 27.9005 275.104 24.7668 275.104C21.3073 275.104 21.0602 278.811 21.3691 280.664C24.4579 303.006 30.7591 348.556 31.2533 352.016C31.7475 355.475 34.1362 357.37 35.2688 357.884C41.7553 359.841 57.57 364.556 68.9368 367.769C83.1453 371.784 102.296 377.653 104.149 379.197C105.632 380.433 108.268 380.742 109.4 380.742H110.018Z" fill="#258B31"/>
<path d="M6.4011 309.817C1.87562 317.656 5.06863 326.739 7.23082 330.301C16.4257 343.366 31.1387 338.388 33.5535 337.741C35.4853 337.224 34.4847 335.421 33.743 334.585C33.9471 334.703 34.8572 334.493 36.8649 332.713C38.8725 330.933 36.945 327.86 35.7949 326.788C36.3642 326.981 38.2097 326.141 39.141 323.821C40.4227 320.628 36.8147 317.715 35.1386 316.611C41.3824 312.867 35.1894 305.209 29.8074 302.51C24.4255 299.811 12.058 300.019 6.4011 309.817Z" fill="#FC9895"/>
<path d="M27.7748 335.494C29.9735 335.457 32.6696 334.872 33.7429 334.585C33.3978 333.297 31.2934 333.171 29.3615 333.688C27.8161 334.102 27.6597 335.064 27.7748 335.494Z" fill="#DC657C"/>
<path d="M25.5535 327.203L35.7951 326.788C35.0186 323.89 31.3035 324.886 28.3315 325.682C25.9538 326.319 25.4888 326.961 25.5535 327.203Z" fill="#DC657C"/>
<path d="M25.9795 317.202L35.1387 316.611C35.087 316.418 34.7633 315.842 33.8826 315.084C32.7817 314.137 29.6205 314.984 28.0399 315.407C26.7754 315.746 26.1394 316.745 25.9795 317.202Z" fill="#DC657C"/>
<path d="M215.861 309.817C220.386 317.656 217.193 326.739 215.031 330.301C205.836 343.366 191.123 338.388 188.708 337.741C186.776 337.224 187.777 335.421 188.519 334.585C188.315 334.703 187.404 334.493 185.397 332.713C183.389 330.933 185.317 327.86 186.467 326.788C185.898 326.981 184.052 326.141 183.121 323.821C181.839 320.628 185.447 317.715 187.123 316.611C180.879 312.867 187.072 305.209 192.454 302.51C197.836 299.811 210.204 300.019 215.861 309.817Z" fill="#FC9895"/>
<path d="M194.754 334.498C192.555 334.461 189.859 333.877 188.785 333.589C189.131 332.301 191.235 332.175 193.167 332.693C194.712 333.107 194.869 334.069 194.754 334.498Z" fill="#DC657C"/>
<path d="M196.975 326.207L186.733 325.793C187.51 322.895 191.225 323.89 194.197 324.687C196.575 325.324 197.04 325.966 196.975 326.207Z" fill="#DC657C"/>
<path d="M196.549 316.206L187.39 315.616C187.441 315.422 187.765 314.847 188.646 314.089C189.747 313.141 192.908 313.988 194.488 314.412C195.753 314.751 196.389 315.749 196.549 316.206Z" fill="#DC657C"/>
<path d="M12.7346 277.957L33.989 279.64C35.5692 279.765 36.0194 281.836 34.6276 282.586C28.607 285.826 22.5864 289.064 16.5629 292.304C15.2564 293.007 13.7674 291.725 14.3059 290.36L21.9243 271.004C22.4805 269.592 24.5462 269.694 24.9552 271.155L30.3814 290.487C30.7727 291.884 29.1926 293.016 27.9625 292.217C22.4952 288.67 17.0337 285.013 11.6017 280.748C10.3717 279.782 11.1662 277.832 12.7346 277.957Z" fill="#3C99C7"/>
<path d="M200.721 288.394C198.398 289.392 195.722 288.996 193.771 287.361C191.945 285.831 190.064 284.144 189.212 282.483C187.667 279.472 187.375 275.534 189.667 272.898C191.144 271.199 193.498 270.49 195.535 271.397C197.58 272.311 198.292 274.454 198.778 276.482C199.397 273.881 201.681 271.429 204.271 271.793C206.62 272.124 208.583 275.63 208.546 278.059C208.509 280.487 207.228 282.716 205.731 284.598C204.109 286.637 202.987 287.422 200.721 288.394Z" fill="#3C99C7"/>
</svg>
